<svg xmlns="http://www.w3.org/2000/svg" xmlns:xlink="http://www.w3.org/1999/xlink" width="64" zoomAndPan="magnify" viewBox="0 0 48 66" height="88" preserveAspectRatio="xMidYMid meet" version="1.0"><defs><filter x="0%" y="0%" width="100%" height="100%" id="56fbcdf16b"><feColorMatrix values="0 0 0 0 1 0 0 0 0 1 0 0 0 0 1 0 0 0 1 0" color-interpolation-filters="sRGB"/></filter><mask id="15c84cc579"><g filter="url(#56fbcdf16b)"><rect x="-4.8" width="57.6" fill="#000000" y="-6.6" height="79.2" fill-opacity="0.13"/></g></mask><clipPath id="ca0af0598e"><path d="M 0 0 L 48 0 L 48 66 L 0 66 Z M 0 0 " clip-rule="nonzero"/></clipPath><clipPath id="b3183dc758"><rect x="0" width="48" y="0" height="66"/></clipPath></defs><g mask="url(#15c84cc579)"><g transform="matrix(1, 0, 0, 1, 0, -0.000000000000001479)"><g clip-path="url(#b3183dc758)"><g clip-path="url(#ca0af0598e)"><path fill="#000000" d="M -40.429688 -34.925781 L -40.429688 -36.617188 L -38.785156 -36.617188 L -35.277344 -54.695312 L -33.285156 -54.695312 L -29.425781 -36.617188 L -28.097656 -36.617188 L -28.097656 -34.925781 L -32.625 -34.925781 L -32.625 -36.617188 L -31.402344 -36.617188 L -31.886719 -39.386719 L -36.457031 -39.386719 L -36.8125 -36.613281 L -35.585938 -36.613281 L -35.585938 -34.921875 Z M -32.277344 -41.359375 L -34.261719 -51.035156 L -36.121094 -41.359375 Z M 88.746094 100.742188 L 88.746094 102.433594 L 87.101562 102.433594 L 83.597656 120.515625 L 81.601562 120.515625 L 77.738281 102.4375 L 76.410156 102.4375 L 76.410156 100.746094 L 80.9375 100.746094 L 80.9375 102.4375 L 79.71875 102.4375 L 80.207031 105.207031 L 84.78125 105.207031 L 85.132812 102.4375 L 83.910156 102.4375 L 83.910156 100.746094 Z M 80.59375 107.175781 L 82.578125 116.851562 L 84.441406 107.175781 Z M 19.609375 50.550781 C 21.394531 46.984375 22.6875 43.324219 22.917969 39.410156 C 23.128906 37.972656 22.253906 37.949219 22.121094 38.960938 C 19.597656 48.589844 6.179688 45.984375 6.640625 36.925781 C 7.015625 29.574219 14.328125 27.996094 18.140625 30.398438 C 19.644531 31.28125 19.5625 30.75 18.738281 29.835938 C 13.074219 23.53125 16.503906 15.410156 24.160156 15.257812 C 32.441406 15.746094 34.589844 24.441406 29.507812 29.554688 C 28.878906 30.167969 27.476562 32.140625 29.585938 30.761719 C 34.714844 27.125 41.828125 31.035156 41.683594 36.640625 C 41.417969 46.980469 28.789062 47.75 26.089844 39.113281 C 25.828125 38.15625 25.082031 37.675781 25.289062 39.304688 C 25.664062 42.246094 26.4375 46.683594 28.652344 50.546875 Z M -36.921875 -16.945312 C -36.183594 -18.457031 -35.464844 -19.859375 -35.074219 -21.515625 C -34.8125 -23.078125 -35.347656 -22.496094 -35.644531 -21.472656 C -36.089844 -20.054688 -37.328125 -19.410156 -38.476562 -19.394531 C -40.5625 -19.367188 -41.601562 -21.003906 -41.539062 -22.761719 C -41.769531 -24.613281 -39.886719 -25.925781 -38.472656 -25.824219 C -37.40625 -25.746094 -36.472656 -25.171875 -35.914062 -24.726562 C -35.542969 -24.53125 -35.148438 -24.445312 -35.699219 -24.949219 C -36.734375 -26.082031 -37.601562 -26.777344 -37.582031 -28.476562 C -37.566406 -30.066406 -36.199219 -31.730469 -34.390625 -31.675781 C -32.132812 -31.609375 -31.105469 -29.890625 -31.109375 -28.292969 C -31.117188 -27.125 -31.703125 -26.050781 -32.601562 -25.386719 C -33.1875 -24.910156 -33.023438 -24.558594 -32.359375 -25.003906 C -31.71875 -25.554688 -30.957031 -25.796875 -30.164062 -25.8125 C -28.003906 -25.84375 -27.160156 -23.984375 -27.285156 -22.25 C -27.398438 -20.628906 -28.78125 -18.957031 -30.605469 -19.148438 C -32.234375 -19.335938 -33.089844 -20.699219 -33.578125 -22.097656 C -33.742188 -22.527344 -33.996094 -22.644531 -33.988281 -22.003906 C -33.613281 -18.878906 -32.449219 -16.9375 -32.4375 -16.941406 Z M 84.65625 82.996094 C 83.917969 84.507812 83.199219 85.914062 82.808594 87.566406 C 82.546875 89.128906 83.078125 88.550781 83.382812 87.527344 C 83.828125 86.105469 85.066406 85.460938 86.214844 85.445312 C 88.300781 85.417969 89.339844 87.054688 89.28125 88.8125 C 89.507812 90.667969 87.628906 91.976562 86.210938 91.875 C 85.144531 91.800781 84.214844 91.226562 83.652344 90.777344 C 83.285156 90.585938 82.890625 90.496094 83.441406 91 C 84.480469 92.132812 85.347656 92.832031 85.328125 94.527344 C 85.308594 96.121094 83.945312 97.78125 82.136719 97.726562 C 79.878906 97.664062 78.851562 95.945312 78.855469 94.34375 C 78.859375 93.175781 79.445312 92.105469 80.347656 91.441406 C 80.933594 90.964844 80.769531 90.613281 80.101562 91.058594 C 79.460938 91.609375 78.699219 91.851562 77.90625 91.867188 C 75.746094 91.902344 74.902344 90.039062 75.027344 88.308594 C 75.140625 86.6875 76.523438 85.015625 78.347656 85.207031 C 79.976562 85.394531 80.832031 86.757812 81.320312 88.15625 C 81.484375 88.585938 81.738281 88.703125 81.734375 88.0625 C 81.355469 84.941406 80.191406 82.996094 80.179688 83 Z M 84.65625 82.996094 " fill-opacity="1" fill-rule="nonzero"/></g></g></g></g></svg>