<svg xmlns="http://www.w3.org/2000/svg" xmlns:xlink="http://www.w3.org/1999/xlink" width="64" zoomAndPan="magnify" viewBox="0 0 48 66" height="88" preserveAspectRatio="xMidYMid meet" version="1.0"><defs><filter x="0%" y="0%" width="100%" height="100%" id="e0e4135ff3"><feColorMatrix values="0 0 0 0 1 0 0 0 0 1 0 0 0 0 1 0 0 0 1 0" color-interpolation-filters="sRGB"/></filter><mask id="d050268bdd"><g filter="url(#e0e4135ff3)"><rect x="-4.8" width="57.6" fill="#000000" y="-6.6" height="79.2" fill-opacity="0.2"/></g></mask><clipPath id="6565cb50f5"><path d="M 0 0 L 48 0 L 48 66 L 0 66 Z M 0 0 " clip-rule="nonzero"/></clipPath><clipPath id="31e641ac74"><rect x="0" width="48" y="0" height="66"/></clipPath></defs><g mask="url(#d050268bdd)"><g transform="matrix(1, 0, 0, 1, 0, -0.000000000000001479)"><g clip-path="url(#31e641ac74)"><g clip-path="url(#6565cb50f5)"><path fill="#ffdada" d="M 10.183594 32.929688 C 16.320312 26.949219 20.351562 20.429688 24.207031 14.160156 C 27.589844 21.058594 32.441406 27.09375 37.691406 32.929688 C 32.074219 38.714844 27.722656 44.898438 24.226562 51.402344 C 20.347656 44.738281 16.265625 38.699219 10.183594 32.929688 Z M 76.386719 90.363281 C 78.898438 87.914062 80.550781 85.242188 82.128906 82.675781 C 83.515625 85.5 85.503906 87.972656 87.652344 90.363281 C 85.351562 92.730469 83.570312 95.265625 82.136719 97.929688 C 80.550781 95.199219 78.878906 92.726562 76.386719 90.363281 Z M -40.183594 -24.3125 C -37.667969 -26.761719 -36.019531 -29.429688 -34.4375 -32 C -33.054688 -29.171875 -31.066406 -26.699219 -28.914062 -24.3125 C -31.214844 -21.941406 -32.996094 -19.40625 -34.429688 -16.742188 C -36.019531 -19.472656 -37.691406 -21.945312 -40.183594 -24.3125 Z M -40.5625 -34.984375 L -40.5625 -36.675781 L -38.917969 -36.675781 L -35.410156 -54.753906 L -33.417969 -54.753906 L -29.558594 -36.675781 L -28.230469 -36.675781 L -28.230469 -34.984375 L -32.757812 -34.984375 L -32.757812 -36.675781 L -31.53125 -36.675781 L -32.019531 -39.445312 L -36.589844 -39.445312 L -36.941406 -36.675781 L -35.71875 -36.675781 L -35.71875 -34.980469 Z M -32.410156 -41.417969 L -34.394531 -51.097656 L -36.253906 -41.417969 Z M 88.613281 100.679688 L 88.613281 102.371094 L 86.96875 102.371094 L 83.464844 120.453125 L 81.46875 120.453125 L 77.605469 102.375 L 76.277344 102.375 L 76.277344 100.683594 L 80.804688 100.683594 L 80.804688 102.375 L 79.585938 102.375 L 80.074219 105.144531 L 84.644531 105.144531 L 85 102.375 L 83.773438 102.375 L 83.773438 100.683594 Z M 80.460938 107.113281 L 82.445312 116.789062 L 84.308594 107.113281 Z M 80.460938 107.113281 " fill-opacity="1" fill-rule="nonzero"/></g></g></g></g></svg>