<svg xmlns="http://www.w3.org/2000/svg" xmlns:xlink="http://www.w3.org/1999/xlink" width="64" zoomAndPan="magnify" viewBox="0 0 48 66" height="88" preserveAspectRatio="xMidYMid meet" version="1.0"><defs><filter x="0%" y="0%" width="100%" height="100%" id="aa9afedfd5"><feColorMatrix values="0 0 0 0 1 0 0 0 0 1 0 0 0 0 1 0 0 0 1 0" color-interpolation-filters="sRGB"/></filter><mask id="eff2656f26"><g filter="url(#aa9afedfd5)"><rect x="-4.8" width="57.6" fill="#000000" y="-6.6" height="79.2" fill-opacity="0.2"/></g></mask><clipPath id="7d47a18f57"><path d="M 0 0 L 48 0 L 48 66 L 0 66 Z M 0 0 " clip-rule="nonzero"/></clipPath><clipPath id="77d1e01743"><rect x="0" width="48" y="0" height="66"/></clipPath></defs><g mask="url(#eff2656f26)"><g transform="matrix(1, 0, 0, 1, 0, -0.000000000000001479)"><g clip-path="url(#77d1e01743)"><g clip-path="url(#7d47a18f57)"><path fill="#ffdada" d="M -40.425781 -34.796875 L -40.425781 -36.488281 L -38.777344 -36.488281 L -35.273438 -54.5625 L -33.28125 -54.5625 L -29.417969 -36.488281 L -28.09375 -36.488281 L -28.09375 -34.796875 L -32.617188 -34.796875 L -32.617188 -36.488281 L -31.394531 -36.488281 L -31.882812 -39.257812 L -36.453125 -39.257812 L -36.804688 -36.484375 L -35.582031 -36.484375 L -35.582031 -34.792969 Z M -32.269531 -41.230469 L -34.257812 -50.90625 L -36.117188 -41.230469 Z M 88.753906 100.875 L 88.753906 102.566406 L 87.105469 102.566406 L 83.601562 120.652344 L 81.605469 120.652344 L 77.746094 102.574219 L 76.414062 102.574219 L 76.414062 100.882812 L 80.945312 100.882812 L 80.945312 102.570312 L 79.726562 102.570312 L 80.214844 105.34375 L 84.785156 105.34375 L 85.136719 102.574219 L 83.914062 102.574219 L 83.914062 100.882812 Z M 80.597656 107.308594 L 82.585938 116.988281 L 84.445312 107.308594 Z M -39.777344 -25.726562 C -40.757812 -27.871094 -40.863281 -31.535156 -37.941406 -32.03125 C -35.734375 -32.3125 -34.839844 -31.289062 -34.660156 -29.71875 C -34.570312 -29.257812 -34.3125 -29.230469 -34.230469 -29.753906 C -34.105469 -31.367188 -32.503906 -32.308594 -31.253906 -32.070312 C -27.835938 -31.488281 -28.035156 -27.730469 -29.152344 -25.179688 C -30.84375 -21.796875 -32.617188 -19.660156 -34.253906 -16.253906 C -36.136719 -19.800781 -38.28125 -22.679688 -39.777344 -25.726562 Z M 16.707031 15.285156 C 21.128906 14.992188 23.433594 18.761719 23.882812 21.730469 C 24.152344 22.203125 24.296875 22.070312 24.402344 21.707031 C 24.617188 17.894531 28.035156 14.777344 31.203125 15.203125 C 36.355469 15.269531 39.488281 20.996094 38.609375 25.835938 C 37.53125 31.757812 34.339844 35.316406 31.917969 38.992188 C 29.183594 42.789062 25.5 48.28125 24.316406 50.921875 C 24.316406 50.921875 20.570312 45.238281 15.703125 38.550781 C 12.441406 34.082031 9.835938 29.238281 9.59375 25.066406 C 9.316406 20.300781 11.277344 16.03125 16.707031 15.289062 Z M 76.792969 92.042969 C 75.8125 94.1875 75.703125 97.851562 78.628906 98.347656 C 80.832031 98.628906 81.730469 97.605469 81.910156 96.035156 C 81.996094 95.578125 82.257812 95.546875 82.339844 96.070312 C 82.464844 97.683594 84.0625 98.625 85.3125 98.386719 C 88.734375 97.804688 88.535156 94.046875 87.417969 91.5 C 85.726562 88.113281 83.949219 85.976562 82.3125 82.566406 C 80.433594 86.113281 78.289062 88.992188 76.789062 92.039062 Z M 76.792969 92.042969 " fill-opacity="1" fill-rule="nonzero"/></g></g></g></g></svg>