<svg xmlns="http://www.w3.org/2000/svg" xmlns:xlink="http://www.w3.org/1999/xlink" width="64" zoomAndPan="magnify" viewBox="0 0 48 66" height="88" preserveAspectRatio="xMidYMid meet" version="1.0"><defs><filter x="0%" y="0%" width="100%" height="100%" id="0800e5cc9b"><feColorMatrix values="0 0 0 0 1 0 0 0 0 1 0 0 0 0 1 0 0 0 1 0" color-interpolation-filters="sRGB"/></filter><mask id="ce2339dcf5"><g filter="url(#0800e5cc9b)"><rect x="-4.8" width="57.6" fill="#000000" y="-6.6" height="79.2" fill-opacity="0.13"/></g></mask><clipPath id="4c8001625a"><path d="M 0 0 L 48 0 L 48 66 L 0 66 Z M 0 0 " clip-rule="nonzero"/></clipPath><clipPath id="7cf55ff0e2"><rect x="0" width="48" y="0" height="66"/></clipPath></defs><g mask="url(#ce2339dcf5)"><g transform="matrix(1, 0, 0, 1, 0, -0.000000000000001479)"><g clip-path="url(#7cf55ff0e2)"><g clip-path="url(#4c8001625a)"><path fill="#000000" d="M -40.425781 -34.539062 L -40.425781 -36.230469 L -38.785156 -36.230469 L -35.300781 -54.308594 L -33.320312 -54.308594 L -29.476562 -36.230469 L -28.15625 -36.230469 L -28.15625 -34.539062 L -32.660156 -34.539062 L -32.660156 -36.230469 L -31.441406 -36.230469 L -31.925781 -39 L -36.472656 -39 L -36.824219 -36.226562 L -35.605469 -36.226562 L -35.605469 -34.539062 Z M -32.3125 -40.972656 L -34.289062 -50.652344 L -36.140625 -40.972656 Z M 88.054688 101.136719 L 88.054688 102.824219 L 86.417969 102.824219 L 82.933594 120.90625 L 80.949219 120.90625 L 77.105469 102.828125 L 75.789062 102.828125 L 75.789062 101.136719 L 80.292969 101.136719 L 80.292969 102.828125 L 79.074219 102.828125 L 79.558594 105.597656 L 84.105469 105.597656 L 84.457031 102.828125 L 83.242188 102.828125 L 83.242188 101.136719 Z M 79.945312 107.566406 L 81.921875 117.246094 L 83.769531 107.566406 Z M 23.023438 40.304688 C 23.03125 39.054688 22.046875 39.03125 22.054688 39.941406 C 21.976562 44.53125 18.109375 46.789062 15.296875 46.253906 C 10.96875 45.425781 9.585938 41.113281 9.628906 38.574219 C 9.753906 30.734375 17.621094 24.949219 24.71875 14.898438 C 29.917969 23.972656 38.503906 31.097656 39.011719 38.113281 C 39.6875 47.433594 27.925781 50.910156 26.25 40.042969 C 26.140625 39.277344 25.238281 38.933594 25.308594 40.003906 C 25.566406 42.980469 25.203125 44.222656 28.550781 51.566406 L 19.796875 51.566406 C 21.738281 48.132812 22.890625 43.921875 23.023438 40.300781 Z M -34.089844 -19.875 C -34.085938 -20.414062 -34.644531 -20.164062 -34.71875 -19.992188 C -35.433594 -18.765625 -36.480469 -18.480469 -37.519531 -18.921875 C -38.542969 -19.363281 -39.121094 -20.332031 -39.027344 -21.714844 C -38.835938 -23.839844 -37.160156 -26.164062 -36.347656 -27.476562 C -35.578125 -28.667969 -34.730469 -30.082031 -33.839844 -31.894531 C -32.792969 -29.816406 -32.265625 -29.226562 -31.128906 -27.332031 C -30.128906 -25.660156 -28.734375 -24.023438 -28.628906 -22.003906 C -28.628906 -20.46875 -29.269531 -19.019531 -30.71875 -18.753906 C -31.539062 -18.609375 -32.304688 -19.027344 -32.875 -20.015625 C -33.046875 -20.265625 -33.398438 -20.132812 -33.390625 -19.789062 C -33.289062 -18.5 -32.804688 -17.332031 -31.652344 -15.953125 L -35.890625 -15.953125 C -35.019531 -16.925781 -34.136719 -18.242188 -34.09375 -19.875 Z M 81.847656 86.707031 C 81.851562 87.246094 81.296875 86.996094 81.21875 86.824219 C 80.503906 85.597656 79.457031 85.3125 78.421875 85.753906 C 77.394531 86.195312 76.820312 87.164062 76.910156 88.546875 C 77.101562 90.671875 78.777344 92.996094 79.589844 94.308594 C 80.363281 95.5 81.207031 96.917969 82.101562 98.730469 C 83.144531 96.652344 83.675781 96.0625 84.8125 94.164062 C 85.808594 92.496094 87.207031 90.859375 87.3125 88.839844 C 87.3125 87.304688 86.667969 85.855469 85.21875 85.59375 C 84.402344 85.441406 83.632812 85.863281 83.0625 86.847656 C 82.890625 87.101562 82.539062 86.96875 82.546875 86.628906 C 82.648438 85.332031 83.136719 84.167969 84.289062 82.792969 L 80.050781 82.792969 C 80.917969 83.765625 81.804688 85.078125 81.84375 86.710938 Z M 81.847656 86.707031 " fill-opacity="1" fill-rule="nonzero"/></g></g></g></g></svg>