<svg xmlns="http://www.w3.org/2000/svg" xmlns:xlink="http://www.w3.org/1999/xlink" width="76" zoomAndPan="magnify" viewBox="0 0 56.879997 78.749999" height="105" preserveAspectRatio="xMidYMid meet" version="1.0"><defs><filter x="0%" y="0%" width="100%" height="100%" id="5bc35c3f2a"><feColorMatrix values="0 0 0 0 1 0 0 0 0 1 0 0 0 0 1 0 0 0 1 0" color-interpolation-filters="sRGB"/></filter><mask id="b39b8cb8bd"><g filter="url(#5bc35c3f2a)"><rect x="-5.688" width="68.255996" fill="#000000" y="-7.875" height="94.499999" fill-opacity="0.12"/></g></mask><clipPath id="e61e541412"><path d="M 0.957031 0.347656 L 31.609375 0.347656 L 31.609375 30.253906 L 0.957031 30.253906 Z M 0.957031 0.347656 " clip-rule="nonzero"/></clipPath><clipPath id="e64c01bef1"><rect x="0" width="33" y="0" height="31"/></clipPath></defs><g mask="url(#b39b8cb8bd)"><g transform="matrix(1, 0, 0, 1, 12, 24)"><g clip-path="url(#e64c01bef1)"><g clip-path="url(#e61e541412)"><path fill="#000000" d="M 16.84375 0.351562 C 12.285156 0.351562 7.996094 2.515625 5.226562 6.101562 L 0.984375 3.613281 L 0.976562 17.835938 L 13.132812 10.734375 L 9.226562 8.441406 C 11.144531 6.265625 13.90625 4.953125 16.84375 4.953125 C 22.476562 4.953125 27.058594 9.59375 27.058594 15.304688 C 27.058594 21.011719 22.476562 25.65625 16.84375 25.65625 L 16.84375 30.257812 C 24.980469 30.257812 31.597656 23.546875 31.597656 15.304688 C 31.597656 7.058594 24.980469 0.351562 16.84375 0.351562 Z M 16.84375 0.351562 " fill-opacity="1" fill-rule="nonzero"/></g></g></g></g></svg>