<svg xmlns="http://www.w3.org/2000/svg" xmlns:xlink="http://www.w3.org/1999/xlink" width="64" zoomAndPan="magnify" viewBox="0 0 48 42.75" height="57" preserveAspectRatio="xMidYMid meet" version="1.0"><defs><clipPath id="61ef656461"><path d="M 2.75 0 L 45.25 0 L 45.25 42.5 L 2.75 42.5 Z M 2.75 0 " clip-rule="nonzero"/></clipPath><clipPath id="8f2fc0f096"><path d="M 24 0 C 12.261719 0 2.75 9.515625 2.75 21.25 C 2.75 32.988281 12.261719 42.5 24 42.5 C 35.738281 42.5 45.25 32.988281 45.25 21.25 C 45.25 9.515625 35.738281 0 24 0 Z M 24 0 " clip-rule="nonzero"/></clipPath><clipPath id="c6a35a7c36"><path d="M 9.804688 8 L 24 8 L 24 21 L 9.804688 21 Z M 9.804688 8 " clip-rule="nonzero"/></clipPath><clipPath id="8715cad891"><path d="M 26.550781 23.082031 L 36.148438 23.082031 L 36.148438 35.4375 L 26.550781 35.4375 Z M 26.550781 23.082031 " clip-rule="nonzero"/></clipPath><clipPath id="e2ecd0e3ba"><path d="M 24.515625 8.25 L 38.140625 8.25 L 38.140625 20.617188 L 24.515625 20.617188 Z M 24.515625 8.25 " clip-rule="nonzero"/></clipPath><clipPath id="d8f956ea92"><path d="M 10.851562 23.082031 L 22.273438 23.082031 L 22.273438 35.4375 L 10.851562 35.4375 Z M 10.851562 23.082031 " clip-rule="nonzero"/></clipPath><clipPath id="7ac42b59c3"><path d="M 10.851562 23.082031 L 16.589844 23.082031 L 16.589844 35.4375 L 10.851562 35.4375 Z M 10.851562 23.082031 " clip-rule="nonzero"/></clipPath><clipPath id="f028720e2a"><path d="M 31.296875 23.082031 L 36.148438 23.082031 L 36.148438 35.4375 L 31.296875 35.4375 Z M 31.296875 23.082031 " clip-rule="nonzero"/></clipPath></defs><g clip-path="url(#61ef656461)"><g clip-path="url(#8f2fc0f096)"><path fill="#ffffff" d="M 2.75 0 L 45.25 0 L 45.25 42.5 L 2.75 42.5 Z M 2.75 0 " fill-opacity="1" fill-rule="nonzero"/></g></g><g clip-path="url(#c6a35a7c36)"><path fill="#ed1c24" d="M 16.570312 10.460938 C 15.707031 7.703125 9.929688 7.175781 9.863281 11.1875 C 9.804688 14.535156 16.542969 20.5625 16.542969 20.5625 L 16.566406 20.578125 C 16.566406 20.578125 23.300781 14.550781 23.242188 11.207031 C 23.175781 7.144531 17.308594 7.628906 16.570312 10.460938 " fill-opacity="1" fill-rule="nonzero"/></g><g clip-path="url(#8715cad891)"><path fill="#ed1c24" d="M 31.335938 23.105469 C 31.335938 23.105469 29.878906 26.292969 26.554688 29.269531 C 29.878906 32.25 31.335938 35.4375 31.335938 35.4375 C 31.335938 35.4375 32.792969 32.25 36.117188 29.269531 C 32.792969 26.292969 31.335938 23.105469 31.335938 23.105469 " fill-opacity="1" fill-rule="nonzero"/></g><g clip-path="url(#e2ecd0e3ba)"><path fill="#000000" d="M 35.582031 12.726562 C 35.144531 12.59375 34.699219 12.546875 34.277344 12.570312 C 34.335938 12.296875 34.367188 12.011719 34.367188 11.71875 C 34.367188 9.800781 33.011719 8.25 31.335938 8.25 C 29.660156 8.25 28.304688 9.800781 28.304688 11.71875 C 28.304688 12.011719 28.335938 12.296875 28.394531 12.570312 C 27.972656 12.546875 27.53125 12.59375 27.089844 12.726562 C 25.261719 13.273438 24.164062 15.023438 24.640625 16.636719 C 25.117188 18.25 26.988281 19.113281 28.8125 18.570312 C 29.75 18.289062 30.492188 18.15625 30.933594 17.714844 C 30.742188 19.453125 29.691406 20.578125 29.691406 20.578125 L 32.980469 20.578125 C 32.980469 20.578125 31.929688 19.453125 31.738281 17.714844 C 32.179688 18.15625 32.921875 18.289062 33.859375 18.570312 C 35.6875 19.113281 37.554688 18.25 38.03125 16.636719 C 38.507812 15.023438 37.410156 13.273438 35.582031 12.726562 " fill-opacity="1" fill-rule="nonzero"/></g><g clip-path="url(#d8f956ea92)"><path fill="#000000" d="M 16.5625 23.121094 L 16.542969 23.105469 C 16.542969 23.105469 10.816406 28.230469 10.863281 31.070312 C 10.917969 34.128906 14.828125 34.15625 16.164062 32.453125 C 16.007812 34.257812 14.90625 35.4375 14.90625 35.4375 L 18.199219 35.4375 C 18.199219 35.4375 17.089844 34.246094 16.941406 32.429688 C 18.332031 34.101562 22.191406 34.109375 22.242188 31.085938 C 22.289062 28.246094 16.5625 23.121094 16.5625 23.121094 " fill-opacity="1" fill-rule="nonzero"/></g><path fill="#c91016" d="M 16.570312 10.460938 C 16.5625 10.445312 16.558594 10.429688 16.554688 10.414062 L 16.554688 20.570312 L 16.566406 20.578125 C 16.566406 20.578125 23.300781 14.550781 23.242188 11.207031 C 23.175781 7.144531 17.308594 7.628906 16.570312 10.460938 " fill-opacity="1" fill-rule="nonzero"/><path fill="#292425" d="M 31.335938 20.578125 L 31.335938 8.25 C 29.660156 8.25 28.304688 9.800781 28.304688 11.71875 C 28.304688 12.011719 28.335938 12.296875 28.394531 12.570312 C 27.972656 12.546875 27.53125 12.59375 27.089844 12.726562 C 25.261719 13.273438 24.164062 15.023438 24.640625 16.636719 C 25.117188 18.25 26.988281 19.113281 28.8125 18.570312 C 29.75 18.289062 30.492188 18.15625 30.933594 17.714844 C 30.742188 19.453125 29.691406 20.578125 29.691406 20.578125 L 31.335938 20.578125 " fill-opacity="1" fill-rule="nonzero"/><g clip-path="url(#7ac42b59c3)"><path fill="#292425" d="M 16.554688 35.4375 L 16.554688 23.113281 L 16.542969 23.105469 C 16.542969 23.105469 10.816406 28.230469 10.863281 31.070312 C 10.917969 34.128906 14.828125 34.15625 16.164062 32.453125 C 16.007812 34.257812 14.90625 35.4375 14.90625 35.4375 L 16.554688 35.4375 " fill-opacity="1" fill-rule="nonzero"/></g><g clip-path="url(#f028720e2a)"><path fill="#c91016" d="M 31.335938 23.105469 L 31.335938 35.4375 C 31.335938 35.4375 32.792969 32.25 36.117188 29.269531 C 32.792969 26.292969 31.335938 23.105469 31.335938 23.105469 " fill-opacity="1" fill-rule="nonzero"/></g></svg>